HIERARCHY
ROOT Hips
{
  OFFSET 0.0 0.0 0.0
  CHANNELS 6 XPOSITION YPOSITION ZPOSITION ZROTATION XROTATION YROTATION 
  JOINT LeftUpLeg
  {
    OFFSET 0.089458 -0.0866707 0.00101652
    CHANNELS 3 ZROTATION XROTATION YROTATION 
    JOINT LeftLeg
    {
      OFFSET 0.0 -0.444227 0.013727
      CHANNELS 3 ZROTATION XROTATION YROTATION 
      JOINT LeftFoot
      {
        OFFSET -0.00253549 -0.420924 -0.0146059
        CHANNELS 3 ZROTATION XROTATION YROTATION 
        End Site
        {
          OFFSET -0.0004 -0.0441509 0.084991
        }
      }
    }
  }
  JOINT Spine
  {
    OFFSET 0.0 0.118905 0.0
    CHANNELS 3 ZROTATION XROTATION YROTATION 
    JOINT Spine1
    {
      OFFSET 0.0 0.256574 0.00127663
      CHANNELS 3 ZROTATION XROTATION YROTATION 
      End Site
      {
        OFFSET -0.0029 0.2150836 0.02525291
      }
      JOINT RightArm
      {
        OFFSET -0.162727 -0.05365632 0.00102123
        CHANNELS 3 ZROTATION XROTATION YROTATION 
        JOINT RightForeArm
        {
          OFFSET -0.26364 0.00099144 -0.0142434
          CHANNELS 3 ZROTATION XROTATION YROTATION 
          End Site
          {
            OFFSET -0.220324 0.00085362 0.0102216
          }
        }
      }
      JOINT LeftArm
      {
        OFFSET 0.162727 -0.0536563199 0.00102123
        CHANNELS 3 ZROTATION XROTATION YROTATION 
        JOINT LeftForeArm
        {
          OFFSET 0.262597 0.00099144 -0.0142434
          CHANNELS 3 ZROTATION XROTATION YROTATION 
          End Site
          {
            OFFSET 0.220902 0.00085362 0.0102216
          }
        }
      }
    }
  }
  JOINT RightUpLeg
  {
    OFFSET -0.089458 -0.0866707 0.00101652
    CHANNELS 3 ZROTATION XROTATION YROTATION 
    JOINT RightLeg
    {
      OFFSET 0.0 -0.444227 0.013727
      CHANNELS 3 ZROTATION XROTATION YROTATION 
      JOINT RightFoot
      {
        OFFSET 0.00253549 -0.420924 -0.0146059
        CHANNELS 3 ZROTATION XROTATION YROTATION 
        End Site
        {
          OFFSET 0.0004 -0.0441509 0.084991
        }
      }
    }
  }
}
MOTION
Frames: 13
Frame Time: 0.033333
-28.544956 0.957660723766 -0.63619448 -5.40733995693 -3.10332996001 -92.1511979043 -8.06973958455 -20.1403000415 -0.829848934332 1.27630995904 28.1918004596 24.6998013597 2.86741992183 -8.56572999283 0.0592327011531 -0.85340001356 8.34471958544 1.49661995188 -4.7897696201 0.63592198791 2.26657991994 83.9457296544 -20.143873938 22.5276594772 12.4944001619 46.8353994407 -1.03608996478 -73.4941536958 -16.3309788904 -1.70846894115 -15.1732003544 50.6792010943 1.45233994221 -2.66255992362 15.2733001918 -2.42643003873 -0.670410974763 34.1475990574 -7.06884024848 18.3347992985 -22.360698918 2.16826020061 
-28.576698 0.962170723766 -0.63320808 -5.3554898565 -3.47228994879 -92.7668028542 -8.69163001603 -17.9910000191 -0.687166976262 1.30028008105 28.1705995524 25.2092993208 2.589260041 -10.8465000577 0.123913998954 -3.23875019969 8.39827082985 1.18643000565 -2.89200988351 0.041395498718 1.35491988686 83.4931203388 -23.7493719989 16.7259397018 15.0342008821 50.3425991267 -7.53893997094 -74.4619710107 -15.3691226232 -6.95765800228 -15.759800906 51.647701428 1.85141007289 -3.85853992111 10.2026001953 -0.36759699251 -0.840078956883 45.2414996658 -7.09043986796 19.668899168 -14.2529997034 0.958095927922 
-28.606011 0.967330723766 -0.63062048 -5.46560018989 -3.60024991435 -93.3682010106 -8.93586989678 -15.5446004282 -0.188596997631 1.27408993412 27.4668014924 25.381099069 2.26230998449 -12.0876999629 0.146442003889 -5.56908011713 8.88389044965 0.611627965527 -0.719360966193 -0.52932301209 0.112734993655 81.5035955166 -26.7320063264 10.5293581528 16.7683995728 53.5413986962 -11.4793999003 -74.5432161108 -13.3925316179 -11.3743592748 -14.0418999005 50.0387001048 -0.938388057402 -4.31296009056 4.26241967891 1.34421004352 -1.11249993135 56.0548980654 -8.08121003349 19.2164981732 -7.43933019963 -0.203459009018 
-28.633591 0.972693723766 -0.62852928 -5.79920968084 -3.3525998482 -93.6726020514 -8.83755956896 -12.9185002679 -0.177900000916 1.15045998832 26.7049997584 25.8132007415 1.48276992906 -13.3408996567 0.13998099178 -7.32779064916 9.55500007806 -0.0236679011423 1.39411001821 -0.67339197881 -1.15084002432 77.8225743465 -27.8173626591 3.52870154836 15.9110998414 53.8816992112 -10.5246000723 -73.3299696086 -9.94818162518 -15.805225079 -11.7502006792 46.0893993494 -4.77911964764 -3.9491799465 -1.32517003743 2.43209994952 -1.58429001891 64.8140965816 -9.42345917238 18.0096993695 -5.59697973235 -0.49029701872 
-28.660539 0.978250723766 -0.62659658 -6.23486006356 -2.58306996862 -93.9112010497 -8.18453969657 -10.0280000696 -0.110211005303 0.996755012068 25.6629007213 26.2135010533 0.774705028542 -14.7566015037 0.123935009789 -7.8386298887 10.1343000112 -0.545603995276 2.8296901703 -0.49958602263 -2.07332996265 73.5047883004 -27.1684810276 -3.81356355232 13.3878998959 51.2534014374 -6.18979020655 -71.0216593672 -6.40712725282 -20.6721822401 -10.0918000129 42.0243986045 -7.79118995604 -2.96000996622 -6.4373798682 3.05165018743 -2.26827999671 70.9283999643 -10.9031001278 16.5887007108 -7.16809997259 -0.241926020773 
-28.686877 0.982901723766 -0.62472668 -6.59408020258 -1.6412799434 -94.2660020563 -7.27667009832 -7.16425030722 0.437200995742 0.811544987852 24.4146016882 26.2630011418 0.531233970954 -15.9093991243 0.121027990565 -7.59466065419 10.7040001135 -1.02117005686 3.55803998561 -0.515622986636 -2.74475015123 69.5830371129 -25.9362448919 -10.4763567386 11.3991007813 48.0946028708 -2.04319004539 -68.3419370992 -4.28315314502 -25.1964602727 -8.45679957462 39.0639999578 -10.376600972 -1.80643989395 -11.4237995991 3.56869017151 -2.98498007061 74.3965992701 -12.2538989559 15.2270000469 -8.96783005946 -0.00315572999071 
-28.712451 0.986206723766 -0.62291838 -6.86190984918 -0.85988298366 -94.6188974401 -6.52665983217 -4.52821990555 1.13903009363 0.617863021105 23.2683012851 26.0702993072 0.269120018747 -16.9145007342 0.109819003137 -7.30728983637 11.4572999695 -1.57106004921 4.06233014095 -0.913350078009 -3.40388005472 66.2224269469 -25.0362820914 -15.8265950334 10.247999609 46.1879009225 0.564361028758 -65.6697485299 -3.26860922542 -28.6475687377 -6.34944032887 35.9381980351 -13.3218007402 -0.772817014845 -16.1685996806 4.12136986924 -3.32478987923 75.2825021262 -13.1110006119 14.0132993371 -10.1716995658 0.123841001307 
-28.737546 0.988096723766 -0.62124828 -7.11597965281 -0.29156399368 -94.7993032267 -6.04222994594 -2.05923010433 1.71514000826 0.478240987783 22.3442996338 25.7696992667 -0.246685995614 -18.1455006057 0.0724987027697 -7.17331055316 12.3017000349 -2.13000986059 4.65430989339 -1.30325996452 -4.06002025635 63.2227512974 -24.8403495773 -19.846866577 9.57711964569 45.0825987299 1.82447009925 -62.998659621 -2.56415738825 -31.3209969863 -4.32652996889 31.721799317 -16.3662004684 0.0269682999091 -20.1882001581 4.48354961461 -3.03389980644 73.5572987947 -13.7726000556 13.3262002358 -11.6437001008 0.27402900377 
-28.762808 0.988876723766 -0.61986708 -7.33335042315 0.168964005728 -94.7166989189 -5.68186020071 0.423091986031 2.19349988402 0.366564993615 21.3175002204 25.3341005373 -0.408694000622 -19.4012991865 0.0612681041959 -7.06135009228 13.0218999404 -2.6241998737 5.39173980486 -1.43692996822 -4.63831999365 60.5105583101 -25.3991785797 -22.767561334 9.29370009231 44.0284990504 1.94200997091 -60.8055473502 -2.39031370595 -33.6810527408 -2.79148017109 27.7499008807 -19.0386007736 0.455527994111 -23.2725001439 4.1871300768 -2.43491014547 69.3218028678 -14.4394006885 13.222500035 -13.1176993199 0.43453500749 
-28.788362 0.989426723766 -0.61879258 -7.42541966561 0.609163974784 -94.4000035376 -5.30092987853 2.97531001685 2.5976799567 0.255943996869 19.8774999754 24.7744006858 -0.0872321011603 -20.2884007408 0.0995024959835 -6.7787501616 13.6517996224 -3.0687499929 6.21369971062 -1.57931998907 -5.11832989371 58.1520530086 -26.5431857468 -24.8178475191 9.25813017466 43.1624993655 1.11746996119 -59.8270681101 -3.18746102856 -35.5727931598 -1.41588007225 25.6123009724 -21.4796984302 0.521463972315 -25.4786000194 3.08627988685 -1.88069002664 62.8231032687 -14.7022997922 13.0955003513 -13.6365008525 0.485735039324 
-28.814088 0.989446723766 -0.61804358 -7.38265926631 0.949352005124 -94.0547033241 -4.9933502385 5.31643013908 2.9375000106 0.188628000287 18.5588995128 24.1891986154 -0.168930988701 -21.0819987129 0.0933570999789 -6.33048996901 14.2499995428 -3.39202007156 6.85245003718 -1.88579004352 -5.4224701066 56.3407448973 -27.952935084 -26.174403343 9.21709012925 42.5813014935 -0.0118040009587 -60.2864393129 -4.89965669168 -36.8253883819 -0.109810005163 25.592500254 -23.9322998328 0.412881013305 -26.7188991934 1.69778994039 -1.43455007418 54.3664001705 -14.2800002949 12.8592996032 -13.6074998692 0.469785000147 
-28.840652 0.987656723766 -0.61777868 -7.24846056327 1.02479998224 -93.752201076 -4.95205021903 7.24896002086 3.2276300114 0.171485999719 17.951999639 23.6192005462 -0.892801987499 -22.1867988866 0.00443494012879 -5.87697992228 14.5803996986 -3.52524995495 7.10170028858 -2.0346501745 -5.49461995612 55.4131095854 -29.2386089122 -26.8974710742 9.03393006892 41.9548980146 -0.665437956717 -61.3024094613 -6.52058309824 -37.7668104306 0.709528001748 26.6216987713 -26.1961011464 0.200125009589 -26.877100035 0.379802006948 -1.10962004612 44.4093982098 -13.8509004905 13.0307006391 -13.9635994656 0.518503939084 
-28.868521 0.984182723766 -0.61810708 -7.04068023231 0.859682026688 -93.2541027006 -5.11355986035 9.05776059894 3.40675001483 0.20126499751 17.5767985648 22.9925989917 -1.36845006472 -23.3473999983 -0.0641817001452 -5.37111007225 14.5159995524 -3.56426015351 7.0851998322 -1.77690999796 -5.44339994065 55.6298861292 -30.0569031408 -26.9289821519 8.7792801261 41.3442995933 -0.570925000633 -61.0840756343 -5.95901561685 -38.6321919834 0.875840013108 26.6982003051 -27.7784015526 -0.212778001727 -26.1721988994 -1.63614001261 -1.03267999283 33.770999502 -13.8980006213 13.2954993893 -14.3832992222 0.580566986586 
